PathFileType	4	(X/Y/Z)	D:\Share\Shared_Data\Ergonomics\Sit To Stand Pertubation\S0\Free STS.trc
DataRate	CameraRate	NumFrames	NumMarkers	Units	OrigDataRate	OrigDataStartFrame	OrigNumFrames	
100	100	8	18	m	100	3290	211
Frame#	Time	R_Toe			R_ASIS			R_Pelvis			V_Sacral			L_Pelvis			L_ASIS			Clavical			R_Acromium			L_Acromium			Sternum			Torso			R_Thigh_Med			R_Thigh_Lat			R_Thigh			R_Shank_Med			R_Shank_Lat			R_Shank			R_Heel			
		X1	Y1	Z1	X2	Y2	Z2	X3	Y3	Z3	X4	Y4	Z4	X5	Y5	Z5	X6	Y6	Z6	X7	Y7	Z7	X8	Y8	Z8	X9	Y9	Z9	X10	Y10	Z10	X11	Y11	Z11	X12	Y12	Z12	X13	Y13	Z13	X14	Y14	Z14	X15	Y15	Z15	X16	Y16	Z16	X17	Y17	Z17	X18	Y18	Z18	

3290	19.32	0.37083536	0.053227291	0.14323892	-0.053771088	0.73905536	0.15330231	-0.18434785	0.73010443	0.19583078	-0.29806976	0.70183997	-0.035407249	-0.15514764	0.72273181	-0.2139563	-0.033153679	0.73437335	-0.16452531	0.06239167	1.0823783	-0.01159109	-0.0023336232	1.160225	0.12971442	-0.0080033894	1.166635	-0.15979126	0.067783096	0.98486456	-0.028556812	0.056860069	1.0359666	-0.13243274	0.28507455	0.49359048	0.085984184	0.26067392	0.51133578	0.2183374	0.19260464	0.64469922	0.13203847	0.2505925	0.10608581	0.1108398	0.19291095	0.089666229	0.19783101	0.23493123	0.31148932	0.2251748	0.15414935	0.04636694	0.15003839
3291	19.33	0.37081018	0.053223373	0.1432677	-0.052837643	0.73851831	0.15352019	-0.18313998	0.7308913	0.19590843	-0.29706372	0.70323981	-0.035390854	-0.15394327	0.72348907	-0.2139395	-0.031805464	0.7340827	-0.16453311	0.068390251	1.0801598	-0.011345163	0.0047710776	1.1586636	0.12998619	-0.00092475981	1.1653777	-0.15934938	0.072646606	0.98262732	-0.028357355	0.062366714	1.0339789	-0.13213554	0.28502478	0.49343948	0.085902435	0.26078259	0.51126587	0.21823769	0.1928974	0.64467938	0.13193968	0.2505641	0.10601766	0.11079395	0.19285785	0.089622017	0.19779126	0.23488756	0.31145065	0.22507053	0.15411108	0.046294682	0.14999774
3292	19.34	0.37078137	0.053216972	0.14329134	-0.051802624	0.73803131	0.15377126	-0.18185023	0.73172687	0.19598969	-0.29598904	0.70471869	-0.035362972	-0.15265524	0.72427954	-0.21391501	-0.030359402	0.73380072	-0.16452637	0.074539795	1.0778591	-0.011098419	0.012043749	1.1570278	0.13025998	0.0063248692	1.1640427	-0.1588985	0.077614716	0.98032227	-0.028153143	0.067992737	1.031915	-0.13184625	0.28497891	0.49328857	0.085812912	0.26090665	0.51119168	0.2181293	0.19319786	0.64465271	0.13184763	0.25052806	0.10594109	0.11073636	0.19279381	0.08957917	0.19775053	0.23484381	0.31140833	0.22495547	0.15406583	0.046214943	0.14994994
3293	19.35	0.37075055	0.053207417	0.14331128	-0.05061861	0.73764044	0.15404588	-0.18046983	0.73261121	0.19607358	-0.29484003	0.70628217	-0.035323071	-0.15128099	0.72510272	-0.21388472	-0.028801054	0.73353485	-0.16450217	0.080840797	1.0754766	-0.010850647	0.019482473	1.1553163	0.130534	0.013741738	1.1626259	-0.15843945	0.082675575	0.97794727	-0.027944508	0.073732376	1.0297731	-0.13156406	0.28494122	0.49313876	0.085719498	0.26105585	0.51111646	0.21801852	0.19351228	0.6446214	0.13176772	0.25048563	0.10585599	0.1106669	0.19271809	0.089538208	0.19770877	0.23480147	0.31136157	0.22483139	0.15401454	0.046126377	0.1498925
3294	19.36	0.37072021	0.053194195	0.14333035	-0.049262333	0.73737085	0.15433336	-0.1789915	0.73354492	0.19616156	-0.29361087	0.70793469	-0.035271355	-0.14981723	0.72595862	-0.21385161	-0.027133751	0.7332832	-0.16445778	0.087290138	1.0730103	-0.010601693	0.027084246	1.1535265	0.13080614	0.02132016	1.1611237	-0.15797345	0.087813004	0.97549994	-0.027731556	0.079580643	1.0275521	-0.13128798	0.28491779	0.49299048	0.085626648	0.26123538	0.51104279	0.21791051	0.19385019	0.644591	0.13170599	0.25043932	0.10576316	0.11058691	0.19263181	0.089499321	0.19766573	0.23476318	0.31131046	0.22470073	0.15395912	0.046028793	0.14982376
3295	19.37	0.37069373	0.053176857	0.14335251	-0.04772752	0.73723669	0.15462073	-0.17740855	0.73452972	0.19625642	-0.29229532	0.70967999	-0.035208519	-0.14825957	0.72684741	-0.21381796	-0.025380512	0.73303522	-0.16439136	0.09388179	1.0704581	-0.010351646	0.034844772	1.1516583	0.13107368	0.029053082	1.159532	-0.15750198	0.093011497	0.97297827	-0.027513947	0.085535263	1.0252529	-0.13101773	0.28491629	0.49284378	0.085538803	0.26144464	0.51097058	0.21781055	0.19422354	0.64456842	0.131668	0.25039259	0.105664	0.11049908	0.19253918	0.089461823	0.19762071	0.23473305	0.31125546	0.22456659	0.15390242	0.045923344	0.14974356
3296	19.38	0.37067493	0.053155109	0.14338203	-0.04603141	0.73723645	0.15489297	-0.17571455	0.73556647	0.19636143	-0.29088629	0.71152063	-0.035135433	-0.14660229	0.72776813	-0.21378354	-0.02357394	0.73277649	-0.16430254	0.10060835	1.0678186	-0.010101315	0.042758568	1.1497117	0.13133327	0.036932846	1.1578478	-0.15702628	0.098265137	0.97038208	-0.027291035	0.091597343	1.0228789	-0.13075404	0.28494571	0.49269867	0.0854599	0.26168115	0.51089734	0.21772423	0.1946463	0.64456091	0.13165785	0.25034949	0.10555999	0.11040705	0.19244792	0.089423584	0.19757182	0.2347164	0.31119742	0.22443224	0.15384769	0.045812412	0.14965331
3297	19.39	0.37066797	0.053128956	0.14342271	-0.044208099	0.7373551	0.15513475	-0.1739037	0.73665619	0.19647922	-0.28937598	0.71345789	-0.035052902	-0.14483855	0.72871899	-0.21374507	-0.02173856	0.7324942	-0.16419208	0.10746208	1.065092	-0.0098525505	0.050819267	1.1476886	0.13158063	0.044951996	1.1560679	-0.15654745	0.10358415	0.96771375	-0.027062479	0.097770432	1.0204344	-0.13049719	0.28501575	0.49255566	0.085392876	0.26194861	0.5108208	0.21765564	0.19513138	0.64457458	0.13167793	0.25031396	0.10545238	0.11031456	0.19236743	0.089381668	0.1975161	0.23471967	0.31113708	0.22430072	0.15379797	0.04569912	0.14955545
